<svg width="240" height="144" viewBox="0 0 240 144" fill="none" xmlns="http://www.w3.org/2000/svg">
<g clip-path="url(#clip0_1_4)">
<mask id="mask0_1_4" style="mask-type:luminance" maskUnits="userSpaceOnUse" x="0" y="0" width="240" height="144">
<path d="M239 0H1C0.447715 0 0 0.447715 0 1V143C0 143.552 0.447715 144 1 144H239C239.552 144 240 143.552 240 143V1C240 0.447715 239.552 0 239 0Z" fill="white"/>
</mask>
<g mask="url(#mask0_1_4)">
<path d="M239 0H1C0.447715 0 0 0.447715 0 1V143C0 143.552 0.447715 144 1 144H239C239.552 144 240 143.552 240 143V1C240 0.447715 239.552 0 239 0Z" fill="#EEEEEE"/>
<path d="M69.3899 67.2727V76H68.201V67.2727H69.3899ZM71.2809 76V69.4545H72.3803V70.4986H72.4656C72.6019 70.1435 72.8221 69.8665 73.1261 69.6676C73.4329 69.4688 73.8008 69.3693 74.2298 69.3693C74.6644 69.3693 75.0281 69.4688 75.3207 69.6676C75.6161 69.8665 75.8391 70.1435 75.9897 70.4986H76.0579C76.2198 70.1548 76.4698 69.8807 76.8079 69.6761C77.146 69.4716 77.5508 69.3693 78.0224 69.3693C78.6104 69.3693 79.0906 69.554 79.4627 69.9233C79.8377 70.2926 80.0252 70.8565 80.0252 71.6151V76H78.8874V71.6747C78.8874 71.2116 78.761 70.8793 78.5082 70.6776C78.2553 70.473 77.9556 70.3707 77.609 70.3707C77.1715 70.3707 76.832 70.5043 76.5906 70.7713C76.3491 71.0355 76.2283 71.3722 76.2283 71.7812V76H75.082V71.5852C75.082 71.2216 74.9656 70.929 74.7326 70.7074C74.5025 70.483 74.2042 70.3707 73.8377 70.3707C73.5849 70.3707 73.3505 70.4375 73.1346 70.571C72.9215 70.7045 72.7496 70.8892 72.619 71.125C72.4883 71.358 72.4229 71.6278 72.4229 71.9347V76H71.2809ZM83.7102 76.1491C83.2955 76.1491 82.919 76.071 82.581 75.9148C82.2457 75.7585 81.9787 75.5327 81.7798 75.2372C81.5838 74.9389 81.4858 74.5753 81.4858 74.1463C81.4858 73.7741 81.5582 73.4702 81.7031 73.2344C81.8509 72.9957 82.0469 72.8082 82.2912 72.6719C82.5355 72.5355 82.8068 72.4332 83.1051 72.3651C83.4034 72.2969 83.706 72.2443 84.0128 72.2074C84.4077 72.1562 84.7273 72.1165 84.9716 72.0881C85.2188 72.0597 85.3991 72.0128 85.5128 71.9474C85.6264 71.8821 85.6832 71.7699 85.6832 71.6108V71.5767C85.6832 71.1818 85.5739 70.875 85.3551 70.6562C85.1364 70.4375 84.8082 70.3281 84.3707 70.3281C83.9162 70.3281 83.5597 70.4276 83.3011 70.6264C83.0426 70.8253 82.8608 71.0426 82.7557 71.2784L81.6818 70.9716C81.8381 70.5739 82.0554 70.2585 82.3338 70.0256C82.6151 69.7898 82.929 69.6222 83.2756 69.5227C83.625 69.4205 83.9815 69.3693 84.3452 69.3693C84.581 69.3693 84.8409 69.3977 85.125 69.4545C85.4091 69.5085 85.679 69.6151 85.9347 69.7741C86.1932 69.9304 86.4063 70.1619 86.5739 70.4688C86.7415 70.7727 86.8253 71.1733 86.8253 71.6705V76H85.7003V75.1094H85.6491C85.5753 75.2628 85.4574 75.4205 85.2955 75.5824C85.1335 75.7415 84.9219 75.8764 84.6605 75.9872C84.3991 76.0952 84.0824 76.1491 83.7102 76.1491ZM83.9233 75.1861C84.3011 75.1861 84.6207 75.1122 84.8821 74.9645C85.1435 74.8168 85.3423 74.625 85.4787 74.3892C85.6179 74.1534 85.6875 73.902 85.6875 73.6349V72.7528C85.642 72.8011 85.5511 72.8452 85.4148 72.8849C85.2784 72.9247 85.1222 72.9588 84.946 72.9872C84.7727 73.0156 84.6023 73.0412 84.4347 73.0639C84.2699 73.0838 84.1335 73.1009 84.0256 73.1151C83.7727 73.1491 83.5384 73.2031 83.3224 73.277C83.1094 73.3509 82.9375 73.4602 82.8068 73.6051C82.679 73.7472 82.6151 73.9389 82.6151 74.1804C82.6151 74.5128 82.7386 74.7642 82.9858 74.9347C83.233 75.1023 83.5455 75.1861 83.9233 75.1861ZM91.2827 78.5909C90.7798 78.5909 90.348 78.5256 89.9872 78.3949C89.6264 78.267 89.3281 78.0966 89.0923 77.8835C88.8594 77.6705 88.6804 77.4403 88.5554 77.1932L89.5014 76.6861C89.5866 76.8082 89.696 76.9432 89.8295 77.0909C89.9659 77.2386 90.1506 77.3665 90.3835 77.4744C90.6165 77.5824 90.919 77.6364 91.2912 77.6364C91.7969 77.6364 92.2145 77.5128 92.544 77.2656C92.8736 77.0213 93.0384 76.6349 93.0384 76.1065V74.7983H92.9531C92.8793 74.929 92.7727 75.081 92.6335 75.2543C92.4943 75.4247 92.2983 75.5753 92.0455 75.706C91.7955 75.8338 91.4645 75.8977 91.0526 75.8977C90.5298 75.8977 90.0597 75.7756 89.642 75.5312C89.2273 75.2841 88.8991 74.9219 88.6577 74.4446C88.4162 73.9673 88.2955 73.3849 88.2955 72.6974C88.2955 72.0156 88.4134 71.4261 88.6491 70.929C88.8849 70.429 89.2116 70.044 89.6293 69.7741C90.0469 69.5043 90.5256 69.3693 91.0653 69.3693C91.483 69.3693 91.8168 69.4389 92.0668 69.5781C92.3168 69.7145 92.5099 69.8722 92.6463 70.0511C92.7855 70.2301 92.8935 70.3807 92.9702 70.5028H93.0639V69.4545H94.1761V76.1662C94.1761 76.7287 94.0469 77.1875 93.7884 77.5426C93.5327 77.9006 93.1861 78.1648 92.7486 78.3352C92.3111 78.5057 91.8224 78.5909 91.2827 78.5909ZM91.2614 74.9176C91.6477 74.9176 91.973 74.8295 92.2372 74.6534C92.5043 74.4744 92.7074 74.2173 92.8466 73.8821C92.9858 73.5469 93.0554 73.1463 93.0554 72.6804C93.0554 72.223 92.9872 71.821 92.8509 71.4744C92.7145 71.1278 92.5128 70.8565 92.2457 70.6605C91.9787 70.4616 91.6506 70.3622 91.2614 70.3622C90.858 70.3622 90.5213 70.4659 90.2514 70.6733C89.9815 70.8807 89.7784 71.1591 89.642 71.5085C89.5085 71.858 89.4418 72.2486 89.4418 72.6804C89.4418 73.1236 89.5099 73.5128 89.6463 73.848C89.7855 74.1832 89.9886 74.446 90.2557 74.6364C90.5256 74.8239 90.8608 74.9176 91.2614 74.9176ZM98.7358 76.1364C98.0966 76.1364 97.5469 75.9972 97.0866 75.7188C96.6264 75.4375 96.2713 75.0455 96.0213 74.5426C95.7741 74.0369 95.6506 73.4474 95.6506 72.7741C95.6506 72.1037 95.7741 71.5128 96.0213 71.0014C96.2713 70.4872 96.6193 70.0866 97.0653 69.7997C97.5142 69.5128 98.0384 69.3693 98.6378 69.3693C98.9929 69.3693 99.3395 69.429 99.6776 69.5483C100.018 69.6648 100.325 69.8523 100.598 70.1108C100.874 70.3665 101.091 70.7031 101.25 71.1207C101.412 71.5384 101.493 72.0483 101.493 72.6506V73.0895H96.3665V72.1776H100.355C100.355 71.8253 100.284 71.5128 100.142 71.2401C100.003 70.9645 99.804 70.7472 99.5455 70.5881C99.2898 70.429 98.9886 70.3494 98.642 70.3494C98.2614 70.3494 97.9318 70.4418 97.6534 70.6264C97.3778 70.8111 97.1648 71.0526 97.0142 71.3509C96.8636 71.6491 96.7884 71.9702 96.7884 72.3139V72.9744C96.7884 73.4403 96.8693 73.8366 97.0312 74.1634C97.196 74.4872 97.4247 74.7344 97.7173 74.9048C98.0099 75.0724 98.3509 75.1562 98.7401 75.1562C98.9929 75.1562 99.223 75.1207 99.4304 75.0497C99.6378 74.9759 99.8153 74.8665 99.9631 74.7216C100.114 74.5767 100.23 74.3949 100.312 74.1761L101.403 74.4233C101.304 74.7642 101.131 75.0639 100.884 75.3224C100.639 75.5781 100.334 75.7784 99.9673 75.9233C99.6037 76.0653 99.1932 76.1364 98.7358 76.1364ZM106.369 76V67.2727H109.403C110.082 67.2727 110.642 67.3963 111.082 67.6435C111.525 67.8906 111.855 68.2259 112.071 68.6491C112.287 69.0696 112.395 69.5426 112.395 70.0682C112.395 70.5937 112.287 71.0682 112.071 71.4915C111.855 71.9148 111.527 72.2514 111.086 72.5014C110.646 72.7486 110.086 72.8722 109.407 72.8722H107.281V71.8452H109.331C109.779 71.8452 110.142 71.767 110.417 71.6108C110.693 71.4545 110.893 71.2429 111.018 70.9759C111.146 70.7088 111.21 70.4062 111.21 70.0682C111.21 69.7273 111.146 69.4247 111.018 69.1605C110.893 68.8935 110.691 68.6847 110.413 68.5341C110.135 68.3807 109.768 68.304 109.314 68.304H107.558V76H106.369ZM115.032 67.2727V76H113.89V67.2727H115.032ZM118.726 76.1491C118.311 76.1491 117.935 76.071 117.597 75.9148C117.261 75.7585 116.994 75.5327 116.795 75.2372C116.599 74.9389 116.501 74.5753 116.501 74.1463C116.501 73.7741 116.574 73.4702 116.719 73.2344C116.866 72.9957 117.063 72.8082 117.307 72.6719C117.551 72.5355 117.822 72.4332 118.121 72.3651C118.419 72.2969 118.722 72.2443 119.028 72.2074C119.423 72.1562 119.743 72.1165 119.987 72.0881C120.234 72.0597 120.415 72.0128 120.528 71.9474C120.642 71.8821 120.699 71.7699 120.699 71.6108V71.5767C120.699 71.1818 120.589 70.875 120.371 70.6562C120.152 70.4375 119.824 70.3281 119.386 70.3281C118.932 70.3281 118.575 70.4276 118.317 70.6264C118.058 70.8253 117.876 71.0426 117.771 71.2784L116.697 70.9716C116.854 70.5739 117.071 70.2585 117.349 70.0256C117.631 69.7898 117.945 69.6222 118.291 69.5227C118.641 69.4205 118.997 69.3693 119.361 69.3693C119.597 69.3693 119.857 69.3977 120.141 69.4545C120.425 69.5085 120.695 69.6151 120.95 69.7741C121.209 69.9304 121.422 70.1619 121.589 70.4688C121.757 70.7727 121.841 71.1733 121.841 71.6705V76H120.716V75.1094H120.665C120.591 75.2628 120.473 75.4205 120.311 75.5824C120.149 75.7415 119.938 75.8764 119.676 75.9872C119.415 76.0952 119.098 76.1491 118.726 76.1491ZM118.939 75.1861C119.317 75.1861 119.636 75.1122 119.898 74.9645C120.159 74.8168 120.358 74.625 120.494 74.3892C120.634 74.1534 120.703 73.902 120.703 73.6349V72.7528C120.658 72.8011 120.567 72.8452 120.43 72.8849C120.294 72.9247 120.138 72.9588 119.962 72.9872C119.788 73.0156 119.618 73.0412 119.45 73.0639C119.286 73.0838 119.149 73.1009 119.041 73.1151C118.788 73.1491 118.554 73.2031 118.338 73.277C118.125 73.3509 117.953 73.4602 117.822 73.6051C117.695 73.7472 117.631 73.9389 117.631 74.1804C117.631 74.5128 117.754 74.7642 118.001 74.9347C118.249 75.1023 118.561 75.1861 118.939 75.1861ZM126.315 76.1364C125.693 76.1364 125.156 75.9915 124.705 75.7017C124.256 75.4119 123.911 75.0128 123.669 74.5043C123.428 73.9957 123.307 73.4148 123.307 72.7614C123.307 72.0937 123.43 71.5057 123.678 70.9972C123.928 70.4886 124.276 70.0909 124.722 69.804C125.17 69.5142 125.696 69.3693 126.298 69.3693C126.778 69.3693 127.207 69.4574 127.585 69.6335C127.966 69.8097 128.276 70.0568 128.514 70.375C128.753 70.6932 128.898 71.0653 128.949 71.4915H127.824C127.753 71.1875 127.589 70.9233 127.334 70.6989C127.081 70.4716 126.743 70.358 126.32 70.358C125.945 70.358 125.616 70.456 125.335 70.652C125.057 70.8452 124.839 71.1193 124.683 71.4744C124.53 71.8295 124.453 72.2472 124.453 72.7273C124.453 73.2187 124.53 73.6449 124.683 74.0057C124.837 74.3665 125.053 74.6463 125.331 74.8452C125.612 75.044 125.942 75.1435 126.32 75.1435C126.572 75.1435 126.801 75.098 127.006 75.0071C127.21 74.9162 127.384 74.7869 127.526 74.6193C127.668 74.4489 127.767 74.2457 127.824 74.0099H128.949C128.895 74.4134 128.754 74.7756 128.527 75.0966C128.303 75.4176 128.003 75.6719 127.628 75.8594C127.253 76.044 126.815 76.1364 126.315 76.1364ZM133.154 76.1364C132.515 76.1364 131.965 75.9972 131.505 75.7188C131.044 75.4375 130.689 75.0455 130.439 74.5426C130.192 74.0369 130.069 73.4474 130.069 72.7741C130.069 72.1037 130.192 71.5128 130.439 71.0014C130.689 70.4872 131.037 70.0866 131.483 69.7997C131.932 69.5128 132.456 69.3693 133.056 69.3693C133.411 69.3693 133.757 69.429 134.096 69.5483C134.436 69.6648 134.743 69.8523 135.016 70.1108C135.292 70.3665 135.509 70.7031 135.668 71.1207C135.83 71.5384 135.911 72.0483 135.911 72.6506V73.0895H130.784V72.1776H134.773C134.773 71.8253 134.702 71.5128 134.56 71.2401C134.421 70.9645 134.222 70.7472 133.963 70.5881C133.708 70.429 133.407 70.3494 133.06 70.3494C132.679 70.3494 132.35 70.4418 132.071 70.6264C131.796 70.8111 131.583 71.0526 131.432 71.3509C131.282 71.6491 131.206 71.9702 131.206 72.3139V72.9744C131.206 73.4403 131.287 73.8366 131.449 74.1634C131.614 74.4872 131.843 74.7344 132.135 74.9048C132.428 75.0724 132.769 75.1562 133.158 75.1562C133.411 75.1562 133.641 75.1207 133.848 75.0497C134.056 74.9759 134.233 74.8665 134.381 74.7216C134.532 74.5767 134.648 74.3949 134.73 74.1761L135.821 74.4233C135.722 74.7642 135.549 75.0639 135.301 75.3224C135.057 75.5781 134.752 75.7784 134.385 75.9233C134.022 76.0653 133.611 76.1364 133.154 76.1364ZM138.528 72.0881V76H137.386V67.2727H138.52V70.4986H138.605C138.756 70.152 138.987 69.8778 139.3 69.6761C139.612 69.4716 140.024 69.3693 140.536 69.3693C140.982 69.3693 141.372 69.4602 141.707 69.642C142.045 69.821 142.307 70.0938 142.491 70.4602C142.679 70.8267 142.773 71.2869 142.773 71.8409V76H141.631V71.9517C141.631 71.4517 141.501 71.0639 141.243 70.7884C140.987 70.5128 140.631 70.375 140.173 70.375C139.858 70.375 139.575 70.4418 139.325 70.5753C139.078 70.7088 138.884 70.9034 138.741 71.1591C138.599 71.4148 138.528 71.7244 138.528 72.0881ZM147.257 76.1364C146.654 76.1364 146.127 75.9957 145.676 75.7145C145.224 75.4304 144.873 75.0355 144.623 74.5298C144.373 74.0241 144.248 73.4347 144.248 72.7614C144.248 72.0795 144.373 71.4844 144.623 70.9759C144.873 70.4673 145.224 70.0724 145.676 69.7912C146.127 69.5099 146.654 69.3693 147.257 69.3693C147.859 69.3693 148.386 69.5099 148.838 69.7912C149.289 70.0724 149.64 70.4673 149.89 70.9759C150.14 71.4844 150.265 72.0795 150.265 72.7614C150.265 73.4347 150.14 74.0241 149.89 74.5298C149.64 75.0355 149.289 75.4304 148.838 75.7145C148.386 75.9957 147.859 76.1364 147.257 76.1364ZM147.257 75.1477C147.683 75.1477 148.032 75.0384 148.305 74.8196C148.581 74.598 148.785 74.3068 148.919 73.946C149.052 73.5824 149.119 73.1861 149.119 72.7571C149.119 72.331 149.052 71.9361 148.919 71.5724C148.785 71.206 148.581 70.9119 148.305 70.6903C148.032 70.4659 147.683 70.3537 147.257 70.3537C146.833 70.3537 146.484 70.4659 146.208 70.6903C145.933 70.9119 145.728 71.206 145.595 71.5724C145.461 71.9361 145.395 72.331 145.395 72.7571C145.395 73.1861 145.461 73.5824 145.595 73.946C145.728 74.3068 145.933 74.598 146.208 74.8196C146.484 75.0384 146.833 75.1477 147.257 75.1477ZM152.884 67.2727V76H151.742V67.2727H152.884ZM157.123 76.1321C156.586 76.1321 156.11 75.9957 155.695 75.723C155.281 75.4474 154.955 75.0568 154.719 74.5511C154.484 74.0455 154.366 73.4432 154.366 72.7443C154.366 72.0455 154.484 71.4446 154.719 70.9418C154.955 70.4361 155.282 70.0483 155.7 69.7784C156.117 69.5057 156.596 69.3693 157.136 69.3693C157.553 69.3693 157.886 69.4389 158.133 69.5781C158.38 69.7145 158.572 69.8722 158.708 70.0511C158.844 70.2301 158.95 70.3807 159.023 70.5028H159.104V67.2727H160.242V76H159.134V74.9858H159.023C158.947 75.1165 158.839 75.2727 158.7 75.4545C158.56 75.6335 158.364 75.7912 158.112 75.9276C157.862 76.0639 157.532 76.1321 157.123 76.1321ZM157.332 75.1392C157.718 75.1392 158.043 75.0384 158.308 74.8366C158.575 74.6321 158.778 74.3494 158.917 73.9886C159.056 73.625 159.126 73.2045 159.126 72.7273C159.126 72.2557 159.058 71.8423 158.921 71.4872C158.785 71.1321 158.583 70.8565 158.316 70.6605C158.049 70.4616 157.721 70.3622 157.332 70.3622C156.928 70.3622 156.592 70.4673 156.322 70.6776C156.052 70.8849 155.849 71.1676 155.712 71.5256C155.579 71.8807 155.512 72.2812 155.512 72.7273C155.512 73.179 155.58 73.5881 155.717 73.9545C155.856 74.3182 156.059 74.6065 156.326 74.8196C156.596 75.0327 156.931 75.1392 157.332 75.1392ZM164.923 76.1364C164.284 76.1364 163.734 75.9972 163.274 75.7188C162.814 75.4375 162.459 75.0455 162.209 74.5426C161.962 74.0369 161.838 73.4474 161.838 72.7741C161.838 72.1037 161.962 71.5128 162.209 71.0014C162.459 70.4872 162.807 70.0866 163.253 69.7997C163.702 69.5128 164.226 69.3693 164.825 69.3693C165.18 69.3693 165.527 69.429 165.865 69.5483C166.206 69.6648 166.513 69.8523 166.786 70.1108C167.061 70.3665 167.278 70.7031 167.438 71.1207C167.599 71.5384 167.68 72.0483 167.68 72.6506V73.0895H162.554V72.1776H166.543C166.543 71.8253 166.472 71.5128 166.33 71.2401C166.19 70.9645 165.991 70.7472 165.733 70.5881C165.477 70.429 165.176 70.3494 164.83 70.3494C164.449 70.3494 164.119 70.4418 163.841 70.6264C163.565 70.8111 163.352 71.0526 163.202 71.3509C163.051 71.6491 162.976 71.9702 162.976 72.3139V72.9744C162.976 73.4403 163.057 73.8366 163.219 74.1634C163.384 74.4872 163.612 74.7344 163.905 74.9048C164.197 75.0724 164.538 75.1562 164.928 75.1562C165.18 75.1562 165.411 75.1207 165.618 75.0497C165.825 74.9759 166.003 74.8665 166.151 74.7216C166.301 74.5767 166.418 74.3949 166.5 74.1761L167.591 74.4233C167.491 74.7642 167.318 75.0639 167.071 75.3224C166.827 75.5781 166.521 75.7784 166.155 75.9233C165.791 76.0653 165.381 76.1364 164.923 76.1364ZM169.156 76V69.4545H170.26V70.4688H170.328C170.447 70.1307 170.66 69.8608 170.967 69.6591C171.277 69.4545 171.625 69.3523 172.011 69.3523C172.088 69.3523 172.18 69.3551 172.288 69.3608C172.399 69.3636 172.485 69.3693 172.548 69.3778V70.4986C172.505 70.4872 172.42 70.473 172.292 70.456C172.167 70.4361 172.039 70.4261 171.909 70.4261C171.599 70.4261 171.322 70.4915 171.078 70.6222C170.836 70.75 170.646 70.9276 170.507 71.1548C170.368 71.3821 170.298 71.6406 170.298 71.9304V76H169.156Z" fill="black"/>
<path d="M240.257 0.428745C240.494 0.286671 240.571 -0.0204585 240.429 -0.257249C240.287 -0.494039 239.98 -0.570822 239.743 -0.428747L240.257 0.428745ZM146.409 55.5713C146.173 55.7133 146.096 56.0205 146.238 56.2572C146.38 56.494 146.687 56.5708 146.924 56.4287L146.409 55.5713ZM93.5906 88.4287C93.8274 88.2867 93.9042 87.9795 93.7621 87.7428C93.62 87.506 93.3129 87.4292 93.0761 87.5713L93.5906 88.4287ZM-0.257249 143.571C-0.494039 143.713 -0.570822 144.02 -0.428747 144.257C-0.286673 144.494 0.0204571 144.571 0.257247 144.429L-0.257249 143.571ZM0.257247 -0.428747C0.0204571 -0.570822 -0.286673 -0.494039 -0.428747 -0.257249C-0.570822 -0.0204584 -0.494039 0.286671 -0.257249 0.428745L0.257247 -0.428747ZM93.0761 56.4287C93.3129 56.5708 93.62 56.494 93.7621 56.2572C93.9042 56.0205 93.8274 55.7133 93.5906 55.5713L93.0761 56.4287ZM146.924 87.5713C146.687 87.4292 146.38 87.506 146.238 87.7428C146.096 87.9795 146.173 88.2867 146.409 88.4287L146.924 87.5713ZM239.743 144.429C239.98 144.571 240.287 144.494 240.429 144.257C240.571 144.02 240.494 143.713 240.257 143.571L239.743 144.429ZM239.743 -0.428747L146.409 55.5713L146.924 56.4287L240.257 0.428745L239.743 -0.428747ZM93.0761 87.5713L-0.257249 143.571L0.257247 144.429L93.5906 88.4287L93.0761 87.5713ZM-0.257249 0.428745L93.0761 56.4287L93.5906 55.5713L0.257247 -0.428747L-0.257249 0.428745ZM146.409 88.4287L239.743 144.429L240.257 143.571L146.924 87.5713L146.409 88.4287Z" fill="black"/>
</g>
</g>
<defs>
<clipPath id="clip0_1_4">
<rect width="240" height="144" fill="white"/>
</clipPath>
</defs>
</svg>
